<svg width="19" height="19" viewBox="0 0 19 19" fill="none" xmlns="http://www.w3.org/2000/svg">
<path d="M10.3214 18.304H1.70049C1.15166 18.304 0.707031 17.8591 0.707031 17.3104V1.29741C0.707031 0.748649 1.15173 0.303955 1.70049 0.303955H17.7136C18.2623 0.303955 18.707 0.748649 18.707 1.29741V17.3104C18.707 17.8591 18.2622 18.304 17.7136 18.304H13.1268V11.3334H15.4665L15.8168 8.6168H13.1268V6.88245C13.1268 6.09594 13.3452 5.55996 14.473 5.55996L15.9115 5.55933V3.12961C15.6627 3.09651 14.8088 3.02254 13.8154 3.02254C11.7413 3.02254 10.3214 4.28853 10.3214 6.61341V8.6168H7.9757V11.3334H10.3214V18.304Z" fill="#DC965A"/>
</svg>
