<svg width="19" height="12" viewBox="0 0 19 12" fill="none" xmlns="http://www.w3.org/2000/svg">
<path fill-rule="evenodd" clip-rule="evenodd" d="M9.5148 6.89023C8.62047 6.89023 6.42401 6.89306 6.42401 6.89306V4.71485H11.9146C12.297 7.35049 11.1435 11.304 6.42401 11.304C3.2666 11.304 0.707031 8.84148 0.707031 5.80396C0.707031 2.76638 3.2666 0.303955 6.42401 0.303955C7.90556 0.303955 9.25545 0.846113 10.2711 1.73548C9.48405 2.45052 9.23174 2.72309 9.01736 2.95469C8.90584 3.07516 8.80459 3.18455 8.64367 3.33936C8.05618 2.87197 7.41571 2.53663 6.42401 2.53663C4.54833 2.53663 3.08439 3.99946 3.08439 5.80396C3.08439 7.60845 4.54833 9.07128 6.42401 9.07128C8.27745 9.07128 9.0305 8.30232 9.5148 6.89023ZM16.7258 2.91772V4.82367H18.707V6.18505H16.7258V8.14545H15.3107V6.18505H13.273V4.82367H15.3107V2.91772H16.7258Z" fill="#DC965A"/>
</svg>
