<svg width="19" height="19" viewBox="0 0 19 19" fill="none" xmlns="http://www.w3.org/2000/svg">
<path fill-rule="evenodd" clip-rule="evenodd" d="M9.70705 0.303955C7.26278 0.303955 6.95629 0.314316 5.99634 0.358115C5.0384 0.401807 4.38416 0.553963 3.81169 0.776461C3.21986 1.00643 2.71795 1.31417 2.21758 1.8145C1.71724 2.31488 1.4095 2.81678 1.17954 3.40861C0.957039 3.98108 0.804883 4.63532 0.761191 5.59327C0.717392 6.55321 0.707031 6.8597 0.707031 9.30397C0.707031 11.7482 0.717392 12.0547 0.761191 13.0146C0.804883 13.9726 0.957039 14.6268 1.17954 15.1993C1.4095 15.7911 1.71724 16.293 2.21758 16.7934C2.71795 17.2937 3.21986 17.6015 3.81169 17.8315C4.38416 18.0539 5.0384 18.2061 5.99634 18.2498C6.95629 18.2936 7.26278 18.304 9.70705 18.304C12.1513 18.304 12.4578 18.2936 13.4177 18.2498C14.3757 18.2061 15.0299 18.0539 15.6024 17.8315C16.1942 17.6015 16.6961 17.2937 17.1965 16.7934C17.6968 16.293 18.0046 15.7911 18.2346 15.1993C18.457 14.6268 18.6092 13.9726 18.6529 13.0146C18.6967 12.0547 18.707 11.7482 18.707 9.30397C18.707 6.8597 18.6967 6.55321 18.6529 5.59327C18.6092 4.63532 18.457 3.98108 18.2346 3.40861C18.0046 2.81678 17.6968 2.31488 17.1965 1.8145C16.6961 1.31417 16.1942 1.00643 15.6024 0.776461C15.0299 0.553963 14.3757 0.401807 13.4177 0.358115C12.4578 0.314316 12.1513 0.303955 9.70705 0.303955ZM9.70701 1.92554C12.1101 1.92554 12.3948 1.93472 13.3438 1.97802C14.2213 2.01803 14.6978 2.16465 15.0149 2.2879C15.435 2.45117 15.7348 2.64619 16.0498 2.96115C16.3647 3.27607 16.5597 3.57588 16.723 3.99598C16.8463 4.31311 16.9929 4.78965 17.0329 5.66715C17.0762 6.61616 17.0854 6.90082 17.0854 9.30394C17.0854 11.707 17.0762 11.9917 17.0329 12.9407C16.9929 13.8182 16.8463 14.2947 16.723 14.6119C16.5597 15.032 16.3647 15.3318 16.0498 15.6467C15.7348 15.9616 15.435 16.1567 15.0149 16.3199C14.6978 16.4432 14.2213 16.5898 13.3438 16.6298C12.3949 16.6731 12.1103 16.6823 9.70701 16.6823C7.30372 16.6823 7.01913 16.6731 6.07022 16.6298C5.19273 16.5898 4.71619 16.4432 4.39905 16.3199C3.97896 16.1567 3.67915 15.9616 3.36423 15.6467C3.0493 15.3318 2.85424 15.032 2.69098 14.6119C2.56772 14.2947 2.42111 13.8182 2.38109 12.9407C2.33779 11.9917 2.32861 11.707 2.32861 9.30394C2.32861 6.90082 2.33779 6.61616 2.38109 5.66715C2.42111 4.78965 2.56772 4.31311 2.69098 3.99598C2.85424 3.57588 3.04927 3.27607 3.36423 2.96115C3.67915 2.64619 3.97896 2.45117 4.39905 2.2879C4.71619 2.16465 5.19273 2.01803 6.07022 1.97802C7.01924 1.93472 7.3039 1.92554 9.70701 1.92554ZM5.08545 9.30401C5.08545 6.75153 7.1546 4.68237 9.70709 4.68237C12.2595 4.68237 14.3287 6.75153 14.3287 9.30401C14.3287 11.8565 12.2595 13.9256 9.70709 13.9256C7.1546 13.9256 5.08545 11.8565 5.08545 9.30401ZM9.70705 12.304C8.05017 12.304 6.70703 10.9608 6.70703 9.30397C6.70703 7.64709 8.05017 6.30396 9.70705 6.30396C11.3639 6.30396 12.707 7.64709 12.707 9.30397C12.707 10.9608 11.3639 12.304 9.70705 12.304ZM14.5112 5.57968C15.1077 5.57968 15.5912 5.09617 15.5912 4.4997C15.5912 3.90322 15.1077 3.41968 14.5112 3.41968C13.9148 3.41968 13.4312 3.90322 13.4312 4.4997C13.4312 5.09617 13.9148 5.57968 14.5112 5.57968Z" fill="#DC965A"/>
</svg>
