<svg width="19" height="17" viewBox="0 0 19 17" fill="none" xmlns="http://www.w3.org/2000/svg">
<path fill-rule="evenodd" clip-rule="evenodd" d="M2.8258 4.07523H2.8004C1.53041 4.07523 0.707031 3.24434 0.707031 2.19113C0.707031 1.11743 1.55475 0.303955 2.85014 0.303955C4.14447 0.303955 4.94033 1.11538 4.96573 2.18806C4.96573 3.24127 4.14447 4.07523 2.8258 4.07523ZM18.707 16.304H14.7287V10.6794C14.7287 9.20712 14.1064 8.20206 12.738 8.20206C11.6913 8.20206 11.1093 8.8803 10.8383 9.53395C10.7489 9.74052 10.7505 10.0186 10.7522 10.3052V10.3052C10.7524 10.3441 10.7526 10.3832 10.7526 10.4222V16.304H6.8114C6.8114 16.304 6.8622 6.3405 6.8114 5.43482H10.7526V7.14066C10.9854 6.3948 12.2448 5.33032 14.2546 5.33032C16.748 5.33032 18.707 6.89375 18.707 10.2603V16.304ZM4.66948 5.43481H1.16113V16.304H4.66948V5.43481Z" fill="#DC965A"/>
</svg>
