<svg width="412" height="111" viewBox="0 0 412 111" fill="none" xmlns="http://www.w3.org/2000/svg">
<g clip-path="url(#clip0_2001_2457)">
<path fill-rule="evenodd" clip-rule="evenodd" d="M49.6545 6.9744H6.89702V50.2771H49.6545V6.9744ZM1.24902 1.25439V55.9971H55.3025V1.25439H1.24902Z" fill="#DC965A"/>
<path fill-rule="evenodd" clip-rule="evenodd" d="M78.3505 76.8994L83.869 76.9109L83.8977 61.906C83.9055 57.77 81.6941 55.1247 77.0879 55.1159C75.7012 55.0941 74.3263 55.3765 73.0575 55.9437C71.7888 56.5109 70.6563 57.3494 69.7377 58.4018L69.743 55.6298L64.2244 55.6184L64.1836 76.8748L69.7021 76.8853L69.7299 62.5845C70.279 61.818 70.998 61.1927 71.8291 60.7588C72.6601 60.3249 73.5801 60.0945 74.5151 60.0861C76.8612 60.0861 78.3809 61.1052 78.3748 64.0532L78.3505 76.8994ZM102.64 76.9478L108.159 76.9584L108.2 55.7046L102.681 55.6941L102.653 70.0829C102.085 70.8219 101.36 71.4221 100.531 71.8394C99.7034 72.2568 98.7927 72.4805 97.8682 72.4941C95.5221 72.4889 94.0024 71.5182 94.0085 68.5702L94.0293 55.6773L88.5108 55.6668L88.4856 70.7597C88.4778 74.8957 90.6457 77.4477 95.2519 77.4609C96.637 77.4864 98.0125 77.2146 99.2863 76.6634C100.561 76.1123 101.705 75.2941 102.646 74.2629L102.64 76.9478ZM112.764 76.9672L118.283 76.9786L118.288 74.2506C119.045 75.2627 120.022 76.0843 121.145 76.6513C122.267 77.2183 123.502 77.5155 124.756 77.5198C130.057 77.5304 134.064 73.4894 134.077 66.4054C134.091 59.4534 130.144 55.2206 124.8 55.2101C123.545 55.2043 122.306 55.4945 121.181 56.0575C120.056 56.6205 119.076 57.4409 118.318 58.4537L118.339 47.6297L112.82 47.6183L112.764 76.9672ZM118.296 70.1577L118.31 62.6337C118.865 61.8871 119.58 61.2782 120.401 60.8528C121.223 60.4275 122.129 60.1969 123.051 60.1785C126.266 60.1847 128.392 62.6971 128.385 66.3931C128.378 70.0891 126.244 72.5531 123.028 72.5434C122.114 72.5276 121.214 72.3052 120.395 71.8925C119.576 71.4798 118.86 70.8871 118.296 70.1577ZM137.358 77.0156L142.877 77.0261L142.933 47.6764L137.415 47.6658L137.358 77.0156ZM157.216 77.5823C164.167 77.5964 168.35 72.5003 168.361 66.4283C168.373 60.3994 164.211 55.2866 157.258 55.2734C150.348 55.2602 146.167 60.3563 146.156 66.3843C146.144 72.4563 150.306 77.5691 157.216 77.5788V77.5823ZM157.225 72.6103C153.792 72.6033 151.886 69.7397 151.892 66.3957C151.898 63.0957 153.815 60.2357 157.249 60.2454C160.682 60.2551 162.632 63.1169 162.625 66.4169C162.619 69.7609 160.658 72.6173 157.225 72.6103ZM170.229 66.4318C170.215 72.9878 174.856 77.6175 181.332 77.6298C185.634 77.6386 188.245 75.7519 189.639 73.7745L186.039 70.3786C185.54 71.0973 184.874 71.6811 184.101 72.0786C183.328 72.4762 182.469 72.6753 181.602 72.6587C178.256 72.6517 175.914 70.1393 175.921 66.4424C175.928 62.7455 178.279 60.2824 181.625 60.2938C182.496 60.2601 183.361 60.4536 184.137 60.8558C184.913 61.2579 185.575 61.8554 186.057 62.5906L189.671 59.1657C188.28 57.2297 185.68 55.3289 181.378 55.3209C174.9 55.3077 170.241 59.9189 170.229 66.4318ZM205.971 77.1502L212.88 77.1643L204.342 65.5307L212.66 55.9105L205.882 55.8973L197.912 65.3415L197.945 47.7846L192.426 47.7741L192.37 77.1238L197.889 77.1344L197.899 71.6784L200.424 68.9548L205.971 77.1502ZM229.853 85.2937L229.875 74.2489C230.64 75.3321 231.65 76.2142 232.82 76.8214C233.992 77.4286 235.288 77.7432 236.604 77.7389C242.035 77.7495 245.911 73.5765 245.925 66.5805C245.939 59.5845 242.078 55.4397 236.646 55.4292C235.337 55.4257 234.045 55.7331 232.874 56.3269C231.703 56.9206 230.686 57.7841 229.904 58.848L229.91 55.944L225.347 55.9352L225.29 85.2849L229.853 85.2937ZM241.187 66.5709C241.179 70.7069 238.871 73.6505 235.264 73.6434C234.21 73.6109 233.178 73.3355 232.245 72.8381C231.312 72.3407 230.504 71.6344 229.881 70.7729L229.897 62.3689C230.517 61.503 231.327 60.7949 232.263 60.3002C233.198 59.8055 234.235 59.538 235.291 59.5185C238.898 59.5265 241.195 62.4789 241.187 66.5709ZM249.639 77.2365L254.202 77.2453L254.23 62.7684C254.875 61.934 255.692 61.2513 256.624 60.767C257.554 60.2827 258.578 60.0084 259.624 59.9629C260.105 59.9555 260.586 60.0007 261.058 60.0976L261.066 55.5216C259.736 55.5694 258.433 55.917 257.251 56.5388C256.07 57.1606 255.041 58.0411 254.237 59.1164L254.243 55.9924L249.68 55.9827L249.639 77.2365ZM273.321 77.8111C280.056 77.8243 284.151 72.7713 284.162 66.6553C284.175 60.5833 280.099 55.5145 273.363 55.5013C266.714 55.4881 262.577 60.5402 262.565 66.6131C262.553 72.7291 266.672 77.7979 273.321 77.8111ZM273.329 73.7182C269.461 73.7112 267.295 70.4068 267.302 66.6219C267.309 62.8819 269.488 59.5819 273.356 59.5933C277.266 59.6013 279.433 62.9057 279.426 66.6457C279.419 70.4305 277.24 73.7261 273.329 73.7182ZM292.425 85.4169L292.446 74.3721C293.211 75.4552 294.221 76.337 295.392 76.9439C296.563 77.551 297.86 77.8655 299.175 77.8613C304.607 77.8727 308.483 73.6997 308.496 66.7029C308.509 59.706 304.65 55.5629 299.218 55.5524C297.909 55.5487 296.617 55.8561 295.445 56.4498C294.274 57.0435 293.257 57.9071 292.475 58.9712L292.481 56.0672L287.919 56.0584L287.862 85.4108L292.425 85.4169ZM303.759 66.6941C303.751 70.8301 301.443 73.7737 297.836 73.7666C296.782 73.7344 295.748 73.4591 294.815 72.9617C293.881 72.4643 293.071 71.7578 292.448 70.8961L292.465 62.4912C293.085 61.6253 293.894 60.9171 294.83 60.4226C295.766 59.928 296.803 59.6607 297.858 59.6417C301.47 59.6488 303.767 62.6021 303.759 66.6941ZM310.928 66.7081C310.915 73.4401 315.6 77.8938 321.901 77.9061C325.023 78.0249 328.073 76.9289 330.424 74.8429L328.344 71.8025C326.71 73.2967 324.587 74.1236 322.386 74.123C320.739 74.2146 319.121 73.6539 317.874 72.5594C316.627 71.465 315.849 69.9224 315.705 68.2578L331.914 68.2895V67.1895C331.927 60.5015 327.895 55.6087 321.594 55.5964C315.382 55.5841 310.94 60.5473 310.928 66.7081ZM321.589 59.3804C322.346 59.3412 323.103 59.458 323.816 59.7236C324.527 59.9892 325.178 60.398 325.729 60.9256C326.281 61.453 326.72 62.0882 327.023 62.7928C327.325 63.4974 327.483 64.2565 327.488 65.0247L315.67 65.0009C315.733 63.4655 316.388 62.0163 317.495 60.9652C318.601 59.914 320.071 59.3449 321.589 59.3804ZM335.545 77.4028L340.108 77.4116L340.136 62.9347C340.781 62.1003 341.598 61.4174 342.53 60.933C343.46 60.4488 344.484 60.1746 345.53 60.1293C346.011 60.122 346.492 60.167 346.964 60.2639L346.972 55.6879C345.642 55.7359 344.339 56.0836 343.157 56.7055C341.976 57.3275 340.946 58.2082 340.143 59.2836L340.149 56.1587L335.586 56.1499L335.545 77.4028ZM356.052 77.9704C357.605 78.1002 359.149 77.6144 360.356 76.6152L359.276 73.1365C358.713 73.6392 357.983 73.9055 357.233 73.881C355.929 73.881 355.234 72.8206 355.238 71.3686L355.26 60.2357L359.518 60.2445L359.526 56.1965L355.268 56.1877L355.279 50.3797L350.716 50.3701L350.705 56.1781L347.23 56.171L347.222 60.219L350.698 60.2261L350.674 72.5029C350.67 76.0265 352.534 77.9669 356.054 77.973L356.052 77.9704ZM365.051 52.6871C365.61 52.6883 366.156 52.5217 366.621 52.2083C367.087 51.8949 367.45 51.4488 367.665 50.9265C367.88 50.4042 367.937 49.829 367.829 49.2738C367.721 48.7186 367.453 48.2083 367.058 47.8073C366.665 47.4064 366.162 47.1329 365.613 47.0214C365.066 46.9099 364.498 46.9655 363.982 47.181C363.465 47.3965 363.023 47.7624 362.711 48.2324C362.4 48.7022 362.233 49.2551 362.232 49.8209C362.231 50.1972 362.303 50.5701 362.444 50.9182C362.584 51.2663 362.792 51.5827 363.054 51.8493C363.317 52.1159 363.628 52.3274 363.971 52.4716C364.314 52.6158 364.682 52.69 365.054 52.6897L365.051 52.6871ZM362.744 77.4556L367.307 77.4644L367.348 56.2115L362.785 56.2027L362.744 77.4556ZM371.064 66.8234C371.051 73.5563 375.736 78.0091 382.037 78.0214C385.16 78.1407 388.21 77.0445 390.559 74.9581L388.48 71.9177C386.846 73.4123 384.723 74.2393 382.522 74.2383C380.874 74.3299 379.256 73.7692 378.009 72.6747C376.763 71.5803 375.985 70.0377 375.841 68.3731L392.049 68.4048V67.3048C392.062 60.6168 388.03 55.724 381.729 55.7117C375.52 55.702 371.078 60.6661 371.067 66.8261L371.064 66.8234ZM381.724 59.4957C382.482 59.4567 383.239 59.5735 383.95 59.8391C384.662 60.1047 385.314 60.5136 385.865 61.0411C386.416 61.5686 386.856 62.2038 387.158 62.9082C387.461 63.6127 387.619 64.3719 387.623 65.14L375.806 65.1171C375.868 63.581 376.524 62.1313 377.632 61.0804C378.74 60.0294 380.211 59.4612 381.729 59.4983L381.724 59.4957ZM393.861 74.7452C396.319 76.9892 399.542 78.1787 402.85 78.0628C408.498 78.0733 411.59 75.2195 411.598 71.4795C411.607 66.4635 407.133 65.3978 403.484 64.5988C401.009 64.0224 398.924 63.446 398.927 61.818C398.927 60.322 400.452 59.442 402.842 59.449C403.995 59.4257 405.141 59.6412 406.209 60.0824C407.276 60.5235 408.244 61.1809 409.052 62.0142L410.97 58.7582C408.715 56.7569 405.8 55.6835 402.802 55.7495C397.502 55.7389 394.541 58.7257 394.534 62.2017C394.524 66.9537 398.824 67.9305 402.431 68.7295C404.993 69.3068 407.21 69.9712 407.204 71.8192C407.204 73.4032 405.809 74.4125 403.071 74.4073C400.414 74.3238 397.879 73.2539 395.95 71.4012L393.861 74.7452Z" fill="#141414"/>
<path fill-rule="evenodd" clip-rule="evenodd" d="M102.982 104.635H27.063V48.5168L47.3968 27.7473L102.982 27.7474V50.9254H108.63V22.0274L45.0431 22.0273L21.415 46.1619V110.355H108.63V81.3469H102.982V104.635Z" fill="#141414"/>
</g>
<defs>
<clipPath id="clip0_2001_2457">
<rect width="411" height="110" fill="white" transform="translate(0.707031 0.666992)"/>
</clipPath>
</defs>
</svg>
