<svg width="238" height="64" viewBox="0 0 238 64" fill="none" xmlns="http://www.w3.org/2000/svg">
<g clip-path="url(#clip0_2005_2533)">
<path fill-rule="evenodd" clip-rule="evenodd" d="M28.4322 4.44617H3.7764V29.2468H28.4322V4.44617ZM0.519531 1.17017V32.5228H31.6891V1.17017H0.519531Z" fill="#DC965A"/>
<path fill-rule="evenodd" clip-rule="evenodd" d="M44.9798 44.4944L48.162 44.501L48.1785 35.9073C48.183 33.5385 46.9078 32.0234 44.2517 32.0184C43.4521 32.0059 42.6593 32.1676 41.9276 32.4925C41.196 32.8173 40.543 33.2976 40.0133 33.9003L40.0163 32.3127L36.8341 32.3062L36.8105 44.4803L39.9928 44.4863L40.0088 36.2958C40.3254 35.8569 40.74 35.4988 41.2192 35.2502C41.6985 35.0017 42.229 34.8698 42.7681 34.865C44.121 34.865 44.9973 35.4486 44.9938 37.137L44.9798 44.4944ZM58.9863 44.5221L62.1685 44.5282L62.1921 32.3556L59.0099 32.3495L58.9938 40.5904C58.6662 41.0136 58.2478 41.3574 57.7703 41.5964C57.2928 41.8355 56.7677 41.9636 56.2345 41.9714C54.8817 41.9684 54.0053 41.4124 54.0088 39.724L54.0209 32.3399L50.8386 32.3339L50.8241 40.978C50.8196 43.3468 52.0697 44.8084 54.7258 44.816C55.5245 44.8306 56.3177 44.6749 57.0522 44.3592C57.7873 44.0436 58.4472 43.575 58.9893 42.9844L58.9863 44.5221ZM64.8241 44.5332L68.0064 44.5398L68.0094 42.9774C68.4458 43.557 69.0095 44.0276 69.6568 44.3523C70.3037 44.6771 71.0162 44.8473 71.7392 44.8497C74.7957 44.8558 77.1066 42.5414 77.1141 38.4842C77.1221 34.5026 74.8463 32.0784 71.7643 32.0723C71.0408 32.069 70.3263 32.2352 69.6779 32.5577C69.029 32.8801 68.4638 33.35 68.0269 33.9301L68.0389 27.7309L64.8562 27.7243L64.8241 44.5332ZM68.0139 40.6333L68.0224 36.3241C68.3421 35.8965 68.7544 35.5477 69.2279 35.3041C69.7019 35.0605 70.2245 34.9284 70.7562 34.9179C72.6101 34.9214 73.8357 36.3604 73.8317 38.4772C73.8276 40.594 72.597 42.0052 70.7426 41.9996C70.2155 41.9905 69.6969 41.8632 69.2244 41.6268C68.7524 41.3904 68.3391 41.051 68.0139 40.6333ZM79.0061 44.5609L82.1883 44.567L82.2208 27.7576L79.0386 27.7515L79.0061 44.5609ZM90.4567 44.8855C94.4652 44.8936 96.8773 41.9749 96.8838 38.4973C96.8903 35.0444 94.4907 32.1162 90.4813 32.1086C86.4969 32.101 84.0858 35.0197 84.0793 38.4721C84.0723 41.9497 86.4723 44.878 90.4567 44.8835V44.8855ZM90.4622 42.0379C88.4826 42.0339 87.3832 40.3939 87.3867 38.4787C87.3903 36.5887 88.4961 34.9507 90.4758 34.9562C92.4554 34.9618 93.5798 36.6008 93.5763 38.4908C93.5723 40.406 92.4419 42.0419 90.4622 42.0379ZM97.9606 38.4993C97.953 42.2541 100.629 44.9057 104.363 44.9127C106.844 44.9178 108.349 43.8372 109.154 42.7047L107.077 40.7598C106.79 41.1714 106.406 41.5057 105.96 41.7334C105.514 41.9611 105.019 42.0752 104.519 42.0656C102.589 42.0616 101.239 40.6227 101.243 38.5054C101.247 36.3881 102.603 34.9774 104.532 34.9839C105.034 34.9646 105.534 35.0755 105.981 35.3058C106.428 35.5361 106.81 35.8783 107.088 36.2994L109.172 34.3378C108.37 33.229 106.87 32.1404 104.39 32.1358C100.654 32.1283 97.9676 34.7692 97.9606 38.4993ZM118.571 44.6381L122.555 44.6461L117.632 37.9832L122.428 32.4735L118.52 32.4659L113.924 37.8749L113.943 27.8196L110.761 27.8135L110.728 44.6229L113.911 44.629L113.917 41.5042L115.373 39.9443L118.571 44.6381ZM132.343 49.3021L132.355 42.9764C132.797 43.5968 133.379 44.1019 134.054 44.4497C134.729 44.7975 135.477 44.9776 136.235 44.9752C139.367 44.9813 141.602 42.5913 141.61 38.5845C141.618 34.5777 139.392 32.2039 136.26 32.1978C135.505 32.1959 134.76 32.3719 134.085 32.7119C133.409 33.052 132.823 33.5465 132.372 34.1559L132.375 32.4927L129.744 32.4876L129.712 49.297L132.343 49.3021ZM138.878 38.579C138.874 40.9478 137.543 42.6336 135.463 42.6296C134.855 42.611 134.26 42.4533 133.722 42.1684C133.184 41.8835 132.718 41.479 132.359 40.9856L132.368 36.1724C132.725 35.6765 133.192 35.2709 133.732 34.9876C134.272 34.7043 134.869 34.551 135.478 34.5399C137.558 34.5444 138.883 36.2354 138.878 38.579ZM143.752 44.6874L146.383 44.6925L146.399 36.4012C146.772 35.9233 147.243 35.5323 147.78 35.2549C148.316 34.9776 148.907 34.8205 149.51 34.7944C149.787 34.7902 150.064 34.816 150.337 34.8715L150.342 32.2507C149.574 32.2782 148.823 32.4772 148.141 32.8333C147.46 33.1894 146.867 33.6937 146.403 34.3096L146.407 32.5204L143.776 32.5148L143.752 44.6874ZM157.408 45.0166C161.292 45.0241 163.653 42.1301 163.66 38.6273C163.667 35.1497 161.317 32.2467 157.433 32.2391C153.598 32.2316 151.212 35.125 151.206 38.6032C151.199 42.106 153.574 45.009 157.408 45.0166ZM157.412 42.6724C155.182 42.6684 153.933 40.7759 153.937 38.6082C153.941 36.4662 155.198 34.5762 157.428 34.5827C159.683 34.5873 160.932 36.4798 160.928 38.6218C160.924 40.7895 159.668 42.677 157.412 42.6724ZM168.424 49.3726L168.436 43.0469C168.878 43.6672 169.46 44.1723 170.135 44.5199C170.81 44.8676 171.558 45.0477 172.316 45.0453C175.449 45.0518 177.684 42.6619 177.691 38.6546C177.699 34.6473 175.474 32.2744 172.341 32.2684C171.586 32.2663 170.841 32.4423 170.166 32.7824C169.49 33.1224 168.904 33.617 168.453 34.2264L168.457 32.5632L165.826 32.5582L165.793 49.3691L168.424 49.3726ZM174.96 38.6495C174.955 41.0183 173.624 42.7042 171.544 42.7002C170.937 42.6817 170.34 42.5241 169.802 42.2392C169.264 41.9543 168.797 41.5497 168.438 41.0561L168.447 36.2424C168.805 35.7465 169.271 35.3409 169.811 35.0577C170.351 34.7744 170.949 34.6213 171.557 34.6105C173.64 34.6145 174.965 36.3059 174.96 38.6495ZM179.094 38.6576C179.086 42.5132 181.788 45.0639 185.421 45.071C187.222 45.139 188.981 44.5113 190.336 43.3166L189.136 41.5752C188.194 42.431 186.97 42.9046 185.701 42.9043C184.751 42.9568 183.818 42.6356 183.099 42.0088C182.38 41.382 181.932 40.4985 181.849 39.5451L191.195 39.5633V38.9333C191.203 35.1029 188.878 32.3006 185.244 32.2936C181.662 32.2865 179.101 35.1291 179.094 38.6576ZM185.241 34.4608C185.678 34.4383 186.115 34.5052 186.525 34.6573C186.936 34.8094 187.311 35.0436 187.629 35.3457C187.947 35.6478 188.2 36.0116 188.375 36.4151C188.549 36.8187 188.64 37.2535 188.643 37.6934L181.829 37.6798C181.865 36.8004 182.242 35.9705 182.881 35.3684C183.519 34.7664 184.366 34.4405 185.241 34.4608ZM193.289 44.7827L195.92 44.7877L195.936 36.4964C196.309 36.0185 196.78 35.6274 197.317 35.35C197.853 35.0727 198.444 34.9156 199.047 34.8897C199.324 34.8855 199.601 34.9113 199.874 34.9668L199.879 32.346C199.111 32.3735 198.36 32.5726 197.678 32.9288C196.997 33.285 196.403 33.7894 195.94 34.4053L195.944 32.6156L193.313 32.6106L193.289 44.7827ZM205.114 45.1078C206.01 45.1821 206.9 44.9039 207.596 44.3316L206.974 42.3393C206.649 42.6272 206.227 42.7797 205.795 42.7657C205.043 42.7657 204.643 42.1584 204.645 41.3268L204.658 34.9507L207.113 34.9557L207.117 32.6373L204.662 32.6323L204.669 29.3059L202.037 29.3003L202.031 32.6267L200.027 32.6227L200.022 34.9411L202.027 34.9451L202.013 41.9764C202.011 43.9944 203.085 45.1058 205.116 45.1093L205.114 45.1078ZM210.304 30.6274C210.626 30.6281 210.941 30.5326 211.209 30.3531C211.478 30.1737 211.687 29.9182 211.811 29.619C211.935 29.3199 211.968 28.9905 211.905 28.6725C211.843 28.3545 211.688 28.0622 211.461 27.8326C211.234 27.603 210.944 27.4463 210.628 27.3825C210.312 27.3186 209.984 27.3504 209.687 27.4739C209.389 27.5973 209.134 27.8069 208.954 28.076C208.775 28.3451 208.679 28.6618 208.678 28.9858C208.677 29.2013 208.719 29.4149 208.8 29.6143C208.881 29.8136 209.001 29.9948 209.152 30.1475C209.303 30.3002 209.483 30.4213 209.681 30.5039C209.879 30.5865 210.091 30.629 210.305 30.6289L210.304 30.6274ZM208.973 44.8129L211.604 44.818L211.628 32.6459L208.997 32.6408L208.973 44.8129ZM213.771 38.7236C213.763 42.5797 216.465 45.13 220.098 45.137C221.899 45.2053 223.658 44.5775 225.013 43.3826L223.814 41.6413C222.872 42.4973 221.647 42.9709 220.378 42.9703C219.428 43.0228 218.495 42.7016 217.776 42.0748C217.057 41.448 216.608 40.5645 216.525 39.6112L225.872 39.6293V38.9993C225.879 35.1689 223.554 32.3667 219.921 32.3596C216.34 32.3541 213.779 35.1971 213.772 38.7251L213.771 38.7236ZM219.918 34.5268C220.355 34.5045 220.791 34.5714 221.202 34.7235C221.612 34.8756 221.988 35.1098 222.305 35.4119C222.624 35.714 222.877 36.0778 223.051 36.4813C223.226 36.8848 223.317 37.3196 223.32 37.7595L216.505 37.7464C216.541 36.8666 216.92 36.0363 217.558 35.4344C218.197 34.8325 219.046 34.5071 219.921 34.5283L219.918 34.5268ZM226.917 43.2606C228.334 44.5458 230.193 45.2271 232.1 45.1607C235.357 45.1667 237.14 43.5323 237.144 41.3903C237.15 38.5175 234.57 37.9071 232.466 37.4495C231.038 37.1194 229.836 36.7893 229.838 35.8569C229.838 35.0001 230.717 34.4961 232.096 34.5001C232.76 34.4867 233.421 34.6102 234.037 34.8628C234.652 35.1155 235.21 35.492 235.676 35.9692L236.782 34.1044C235.482 32.9583 233.801 32.3435 232.072 32.3813C229.016 32.3752 227.308 34.0858 227.304 36.0766C227.299 38.7982 229.779 39.3576 231.858 39.8153C233.336 40.1459 234.614 40.5264 234.611 41.5848C234.611 42.492 233.806 43.0701 232.227 43.0671C230.695 43.0193 229.234 42.4065 228.121 41.3454L226.917 43.2606Z" fill="#141414"/>
<path fill-rule="evenodd" clip-rule="evenodd" d="M59.1825 60.3797H15.4043V28.2391L27.1296 16.3439L59.1825 16.3439V29.6186H62.4394V13.0679L25.7724 13.0679L12.1475 26.8904V63.6557H62.4394V47.0418H59.1825V60.3797Z" fill="#141414"/>
</g>
<defs>
<clipPath id="clip0_2005_2533">
<rect width="237" height="63" fill="white" transform="translate(0.207031 0.833984)"/>
</clipPath>
</defs>
</svg>
