<svg width="19" height="19" viewBox="0 0 19 19" fill="none" xmlns="http://www.w3.org/2000/svg">
<path fill-rule="evenodd" clip-rule="evenodd" d="M16.4107 12.554L13.8707 12.264C13.2607 12.194 12.6607 12.404 12.2307 12.834L10.3907 14.674C7.56071 13.234 5.2407 10.924 3.8007 8.08396L5.6507 6.23395C6.0807 5.80396 6.2907 5.20396 6.2207 4.59396L5.9307 2.07396C5.8107 1.06396 4.9607 0.303955 3.9407 0.303955H2.2107C1.0807 0.303955 0.140705 1.24396 0.210705 2.37396C0.740705 10.914 7.57071 17.734 16.1007 18.264C17.2307 18.334 18.1707 17.394 18.1707 16.264V14.534C18.1807 13.524 17.4207 12.674 16.4107 12.554Z" fill="#DC965A"/>
</svg>
