<svg width="19" height="19" viewBox="0 0 19 19" fill="none" xmlns="http://www.w3.org/2000/svg">
<path d="M9.70756 0.303955C4.73737 0.303955 0.707031 4.33324 0.707031 9.30448C0.707031 12.9887 2.9233 16.1554 6.09528 17.5472C6.06988 16.9196 6.09105 16.1639 6.25087 15.4802C6.42444 14.7499 7.40874 10.5767 7.40874 10.5767C7.40874 10.5767 7.12192 10.002 7.12192 9.15208C7.12192 7.81851 7.8956 6.82257 8.85767 6.82257C9.67581 6.82257 10.0716 7.43749 10.0716 8.17413C10.0716 8.99649 9.54669 10.2274 9.2768 11.3673C9.05136 12.323 9.75519 13.1009 10.6972 13.1009C12.4022 13.1009 13.5506 10.9111 13.5506 8.31595C13.5506 6.34417 12.2223 4.86772 9.80599 4.86772C7.07641 4.86772 5.37558 6.903 5.37558 9.17642C5.37558 9.96174 5.60631 10.5142 5.96828 10.9418C6.1355 11.1397 6.15773 11.2181 6.0974 11.4445C6.05506 11.6086 5.95558 12.0087 5.9143 12.1664C5.85397 12.3939 5.66981 12.4765 5.46448 12.3918C4.20606 11.8785 3.62077 10.5015 3.62077 8.9531C3.62077 6.39709 5.77671 3.32989 10.0526 3.32989C13.4892 3.32989 15.751 5.81815 15.751 8.48635C15.751 12.0171 13.7887 14.6546 10.894 14.6546C9.92347 14.6546 9.00902 14.1297 8.69574 13.5338C8.69574 13.5338 8.1729 15.6072 8.06283 16.0073C7.87232 16.7005 7.49871 17.3948 7.15685 17.9346C7.96651 18.1738 8.82169 18.304 9.70756 18.304C14.6777 18.304 18.707 14.2747 18.707 9.30448C18.707 4.33324 14.6777 0.303955 9.70756 0.303955Z" fill="#DC965A"/>
</svg>
