<svg width="19" height="19" viewBox="0 0 19 19" fill="none" xmlns="http://www.w3.org/2000/svg">
<path fill-rule="evenodd" clip-rule="evenodd" d="M18.707 18.304H15.2787C15.2787 10.2689 8.74221 3.73231 0.707224 3.73231V0.303955C10.6322 0.303955 18.707 8.37888 18.707 18.304ZM0.707224 15.7325C0.707224 14.3125 1.85857 13.1611 3.27863 13.1611C4.69868 13.1611 5.85003 14.3125 5.85003 15.7325C5.85003 17.1526 4.69868 18.304 3.27863 18.304C1.85857 18.304 0.707224 17.1526 0.707224 15.7325ZM9.2788 18.304H12.7071C12.7071 11.687 7.32389 6.30374 0.707031 6.30374V9.73274C5.43327 9.73274 9.2788 13.5777 9.2788 18.304Z" fill="#DC965A"/>
</svg>
