<svg width="25" height="25" viewBox="0 0 25 25" fill="none" xmlns="http://www.w3.org/2000/svg">
<path d="M12.207 2.33398C6.69703 2.33398 2.20703 6.82398 2.20703 12.334C2.20703 17.844 6.69703 22.334 12.207 22.334C17.717 22.334 22.207 17.844 22.207 12.334C22.207 6.82398 17.717 2.33398 12.207 2.33398ZM16.987 10.034L11.317 15.704C11.177 15.844 10.987 15.924 10.787 15.924C10.587 15.924 10.397 15.844 10.257 15.704L7.42703 12.874C7.13703 12.584 7.13703 12.104 7.42703 11.814C7.71703 11.524 8.19703 11.524 8.48703 11.814L10.787 14.114L15.927 8.97398C16.217 8.68398 16.697 8.68398 16.987 8.97398C17.277 9.26398 17.277 9.73398 16.987 10.034Z" fill="white"/>
</svg>
