<svg width="19" height="16" viewBox="0 0 19 16" fill="none" xmlns="http://www.w3.org/2000/svg">
<path d="M18.707 2.07969C18.0456 2.38088 17.3335 2.58456 16.5866 2.67557C17.3494 2.20753 17.9347 1.46539 18.2105 0.581311C17.4963 1.01468 16.707 1.32996 15.8639 1.49897C15.192 0.763327 14.2316 0.303955 13.1687 0.303955C11.1307 0.303955 9.47724 1.99951 9.47724 4.09052C9.47724 4.38738 9.50893 4.67557 9.57232 4.95293C6.50312 4.79475 3.78257 3.28879 1.96007 0.995179C1.64206 1.55639 1.46033 2.20753 1.46033 2.90092C1.46033 4.21403 2.11221 5.37329 3.10323 6.0526C2.4989 6.03418 1.92837 5.86192 1.42969 5.58023V5.62682C1.42969 7.46214 2.70281 8.99301 4.39324 9.33971C4.08368 9.42855 3.75722 9.47297 3.42019 9.47297C3.18247 9.47297 2.95003 9.45022 2.72499 9.4058C3.19515 10.9096 4.55806 12.0049 6.17454 12.0342C4.91094 13.0504 3.3177 13.6561 1.58817 13.6561C1.29023 13.6561 0.995462 13.6387 0.707031 13.6041C2.34147 14.6767 4.28337 15.304 6.36789 15.304C13.1613 15.304 16.875 9.53473 16.875 4.53039C16.875 4.36571 16.8718 4.20103 16.8655 4.0396C17.5871 3.50547 18.2136 2.83917 18.707 2.07969Z" fill="#DC965A"/>
</svg>
