<svg width="21" height="21" viewBox="0 0 21 21" fill="none" xmlns="http://www.w3.org/2000/svg">
<path d="M10.207 0.833984C4.69703 0.833984 0.207031 5.32398 0.207031 10.834C0.207031 16.344 4.69703 20.834 10.207 20.834C15.717 20.834 20.207 16.344 20.207 10.834C20.207 5.32398 15.717 0.833984 10.207 0.833984ZM14.987 8.53398L9.31703 14.204C9.17703 14.344 8.98703 14.424 8.78703 14.424C8.58703 14.424 8.39703 14.344 8.25703 14.204L5.42703 11.374C5.13703 11.084 5.13703 10.604 5.42703 10.314C5.71703 10.024 6.19703 10.024 6.48703 10.314L8.78703 12.614L13.927 7.47398C14.217 7.18398 14.697 7.18398 14.987 7.47398C15.277 7.76398 15.277 8.23398 14.987 8.53398Z" fill="#DC965A"/>
</svg>
