<svg width="21" height="21" viewBox="0 0 21 21" fill="none" xmlns="http://www.w3.org/2000/svg">
<path d="M10.207 0.333984C4.69703 0.333984 0.207031 4.82398 0.207031 10.334C0.207031 15.844 4.69703 20.334 10.207 20.334C15.717 20.334 20.207 15.844 20.207 10.334C20.207 4.82398 15.717 0.333984 10.207 0.333984ZM14.987 8.03398L9.31703 13.704C9.17703 13.844 8.98703 13.924 8.78703 13.924C8.58703 13.924 8.39703 13.844 8.25703 13.704L5.42703 10.874C5.13703 10.584 5.13703 10.104 5.42703 9.81398C5.71703 9.52398 6.19703 9.52398 6.48703 9.81398L8.78703 12.114L13.927 6.97398C14.217 6.68398 14.697 6.68398 14.987 6.97398C15.277 7.26398 15.277 7.73398 14.987 8.03398Z" fill="white"/>
</svg>
