<svg width="19" height="14" viewBox="0 0 19 14" fill="none" xmlns="http://www.w3.org/2000/svg">
<path fill-rule="evenodd" clip-rule="evenodd" d="M17.8115 1.27374C18.351 1.83459 18.527 3.10819 18.527 3.10819C18.527 3.10819 18.707 4.60417 18.707 6.09957V7.50198C18.707 8.99796 18.527 10.4934 18.527 10.4934C18.527 10.4934 18.351 11.767 17.8115 12.3278C17.1948 12.9913 16.5109 13.0598 16.1244 13.0986C16.0819 13.1028 16.043 13.1067 16.0082 13.111C13.4893 13.2982 9.70703 13.304 9.70703 13.304C9.70703 13.304 5.02703 13.2601 3.58703 13.118C3.51881 13.1049 3.4361 13.0947 3.34244 13.0832C2.88631 13.027 2.17038 12.9388 1.60197 12.3278C1.06253 11.767 0.887031 10.4934 0.887031 10.4934C0.887031 10.4934 0.707031 8.99796 0.707031 7.50198V6.09957C0.707031 4.60417 0.887031 3.10819 0.887031 3.10819C0.887031 3.10819 1.06253 1.83459 1.60197 1.27374C2.22008 0.609339 2.90457 0.54153 3.29114 0.503235C3.33305 0.499083 3.37146 0.495278 3.40591 0.491097C5.92478 0.303955 9.70309 0.303955 9.70309 0.303955H9.71097C9.71097 0.303955 13.4893 0.303955 16.0082 0.491097C16.0426 0.495284 16.081 0.499094 16.123 0.503253C16.5092 0.541552 17.194 0.609447 17.8115 1.27374ZM7.84796 4.00806L7.84852 9.20124L12.7113 6.6136L7.84796 4.00806Z" fill="#DC965A"/>
</svg>
